<svg xmlns="http://www.w3.org/2000/svg" width="1280" height="720" viewBox="0 0 1280 720">
  <rect width="1280" height="720" fill="#08111a"/>
  <rect x="40" y="30" width="1200" height="660" rx="24" fill="#0f172a" stroke="#1e293b"/>
  <rect x="70" y="60" width="1120" height="70" rx="12" fill="#111827"/>
  <text x="110" y="105" font-family="Arial, sans-serif" font-size="30" fill="#34d399">SYS_DASHBOARD</text>
  <circle cx="1110" cy="95" r="12" fill="#34d399"/>
  <rect x="90" y="170" width="180" height="110" rx="16" fill="#111827" stroke="#334155"/>
  <text x="120" y="215" font-family="Arial, sans-serif" font-size="18" fill="#94A3B8">CPU</text>
  <text x="120" y="252" font-family="Arial, sans-serif" font-size="38" fill="#67E8F9">62%</text>
  <rect x="310" y="170" width="180" height="110" rx="16" fill="#111827" stroke="#334155"/>
  <text x="340" y="215" font-family="Arial, sans-serif" font-size="18" fill="#94A3B8">RAM</text>
  <text x="340" y="252" font-family="Arial, sans-serif" font-size="38" fill="#A5B4FC">49%</text>
  <rect x="530" y="170" width="180" height="110" rx="16" fill="#111827" stroke="#334155"/>
  <text x="560" y="215" font-family="Arial, sans-serif" font-size="18" fill="#94A3B8">DISK</text>
  <text x="560" y="252" font-family="Arial, sans-serif" font-size="38" fill="#FBBF24">34%</text>
  <rect x="750" y="170" width="180" height="110" rx="16" fill="#111827" stroke="#334155"/>
  <text x="780" y="215" font-family="Arial, sans-serif" font-size="18" fill="#94A3B8">DOWN</text>
  <text x="780" y="252" font-family="Arial, sans-serif" font-size="30" fill="#34d399">12 MB/s</text>
  <rect x="970" y="170" width="180" height="110" rx="16" fill="#111827" stroke="#334155"/>
  <text x="1000" y="215" font-family="Arial, sans-serif" font-size="18" fill="#94A3B8">UP</text>
  <text x="1000" y="252" font-family="Arial, sans-serif" font-size="30" fill="#F59E0B">4 MB/s</text>
  <rect x="90" y="330" width="520" height="260" rx="16" fill="#111827" stroke="#334155"/>
  <rect x="650" y="330" width="500" height="260" rx="16" fill="#111827" stroke="#334155"/>
  <text x="120" y="365" font-family="Arial, sans-serif" font-size="22" fill="#E2E8F0">CPU / RAM</text>
  <text x="680" y="365" font-family="Arial, sans-serif" font-size="22" fill="#E2E8F0">Sistema</text>
  <path d="M140 520 C220 430, 310 434, 390 500 S520 560, 560 440" fill="none" stroke="#22d3ee" stroke-width="6"/>
  <path d="M700 530 C790 460, 860 470, 940 480 S1080 500, 1120 420" fill="none" stroke="#818cf8" stroke-width="6"/>
  <text x="150" y="610" font-family="Arial, sans-serif" font-size="20" fill="#94A3B8">Screenshot placeholder para Sysdash</text>
</svg>
