<svg xmlns="http://www.w3.org/2000/svg" width="1280" height="720" viewBox="0 0 1280 720">
  <rect width="1280" height="720" fill="#10161b"/>
  <rect x="56" y="30" width="1168" height="660" rx="24" fill="#141d21" stroke="#2b3a3d"/>
  <rect x="90" y="70" width="250" height="580" rx="18" fill="#1a252b" stroke="#334155"/>
  <rect x="380" y="70" width="790" height="580" rx="18" fill="#111827" stroke="#334155"/>
  <text x="118" y="120" font-family="Arial, sans-serif" font-size="22" fill="#A7F3D0">Vellum</text>
  <rect x="118" y="160" width="190" height="34" rx="10" fill="#263942"/>
  <rect x="118" y="215" width="190" height="34" rx="10" fill="#263942"/>
  <rect x="118" y="270" width="190" height="34" rx="10" fill="#263942"/>
  <rect x="118" y="325" width="190" height="34" rx="10" fill="#263942"/>
  <text x="440" y="135" font-family="Arial, sans-serif" font-size="30" fill="#E5E7EB">Workspace</text>
  <rect x="440" y="170" width="650" height="220" rx="18" fill="#1f2937" stroke="#334155"/>
  <rect x="440" y="420" width="300" height="160" rx="18" fill="#1f2937" stroke="#334155"/>
  <rect x="790" y="420" width="300" height="160" rx="18" fill="#1f2937" stroke="#334155"/>
  <text x="470" y="250" font-family="Arial, sans-serif" font-size="42" fill="#D1FAE5">Ideas y notas</text>
  <text x="470" y="295" font-family="Arial, sans-serif" font-size="20" fill="#94A3B8">Organización visual del pensamiento</text>
  <text x="154" y="610" font-family="Arial, sans-serif" font-size="20" fill="#C7D2FE">Screenshot placeholder para Vellum</text>
</svg>
